<svg xmlns="http://www.w3.org/2000/svg" xmlns:xlink="http://www.w3.org/1999/xlink" viewBox="0 0 170 85" fill="#fff" fill-rule="evenodd" stroke="#000" stroke-linecap="round" stroke-linejoin="round"><use xlink:href="#A" x="5" y="2.5"/><symbol id="A" overflow="visible"><g fill="#000" stroke="none"><path d="M141.89 2.31c-.417 2.48-1.096 4.312-2.01 5.535l-.653-.543 1.018-4.04-.183-.373c-.235.034-.548.85-.94 2.48l-.34.034a2.35 2.35 0 0 0-.183-.781l-.157.034c-3.08 11.17-4.462 16.367-7.307 24.958-.522 2.207-.966 3.43-1.357 3.667.026.238.13.373.34.34.078 1.087-.13 2.14-.574 3.192-1.33 4.924-2.192 7.64-2.636 8.115l.287 2.343c.026.238-.078.407-.287.407l-.313.034c-.052-.645-.235-.95-.548-.917l-.157.034c-.39.815-.705 1.766-.913 2.852l.313-.034c.418-.34.6-.747.574-1.256l.626-.068.34.17c-.287.577-.417 1.053-.39 1.392l.156.373-.39 1.222.026.204c.365-.034.757.102 1.174.44.287-.034.6-.204.94-.475.365-.034 1.67-.068 3.967-.068l1.148-.51c1.41-.034 1.618.034 2.845-.102l.496-.068.26-.238.026.204c1.253-.136 1.357-.034 2.35.136l.026.204-.705.068.026.373c.21-.034.39-.102.548-.272.183-.034.287.102.313.373-.287.034-.6.136-.966.272l-.313-.136c-.496.17-.39.204-.705.238l-.496-.136c0 .102-.026.17-.104.204.026.238.104.373.287.34l.6-.068-.26-.136c0 .102.052.17.157.17l2.584-.306.992-.272c0 .102.052.17.13.17l.47-.238.887-.102c.705-.068.68-.136 2.166-.44 0-.102.026-.17.104-.17v.17c2.845-.61 2.584-.577 3.184-.85l-.13-.407c-.81.238-.783.102-1.2.17l-2.166.136-.026-.204 1.2-.204.444-.034.235-.238.026.204c1.696-.204 2.297.373 10.204-1.8.418-.034.392-.51.652-1.46-.156 0-.287-.034-.417-.136-.652.34-.992.17-2.244.44-.104 0-.183-.102-.235-.373v-.17l1.2.068c.21-.034.68-.068 1.305-.543.13.102-.104.204.026.17l.21-.034c.13 0 .183-.136.183-.407l-.13-.373c-.81.102-1.2.136-1.853.61l-.026-.204-.992.136c-.026-.407-.104-.577-.235-.577l-.522.068c-.6.068-.887.034-1.174.34 0-.136-.052-.204-.104-.204l-.574.068-.34.238c0-.136-.052-.204-.104-.204l-.21.238-.026-.204-.783-.068-.183.034.026.373.418.136.365-.034c.13.102.287.136.444.136l.34-.204v.17c-1.853.61-1.853.475-3.132.78-.157-.136-.26-.17-.313-.17-.13.17.157.034.078.034-.21.034-.313-.102-.34-.34l.652-.102c.052 0 .078.068.444.17.522-.34.548-.475.835-.51l-.026-.373c-1.827.475-1.096.17-3.393.407h-.104l-.026-.373c2.95-.475 1.957-.204 2.95-.577 0 .136.052.204.104.204.104-.136.26-.238.417-.238l.21-.034c1.018-.102 1.383.17 3.42-.577v.17l.34-.204.313-.034c-.026-.407.444-.44.574-.475l-.026-.407c-3.575.95-4.515.68-5.507 1.053v-.17c-.94.238-.966.102-1.2.136-.078 0-.183.102-.287.238 0-.136-.052-.204-.13-.204-.157 0-.078.068-.21.238l.21-.238-3.106.645c0-.102-.052-.17-.13-.17-1.566.44-1.148.51-3.262.747-.104 0-.235.068-.39.204 0-.102-.052-.17-.157-.17l-1.305.136-.86.272c0-.102-.052-.17-.157-.17-.496.17-.913.272-1.253.306h-.026c-.21.034.104-.068-.052-.17l-.26.204c-.39.034-.183-.034-1.487 0-2.297.373-2.036.407-2.297.44l-.86-.068c0 .102-.026.17-.13.204-.966-.17-1.46-.373-1.488-.61.13-1.188.34-1.8.68-1.868l.157-.034-.157.407.157-.034c.313-.204.444-.407.444-.61l-.026-.407-.313.034-.026-.373c-.026-.306 0-.543.078-.78l.705-1.46.026.373.34-.034-.026-.373-.183-.373c.235-.272.444-.44.6-.44l-.026-.204-.444.034-.026-.577c.887-2.445 1.33-3.87 1.305-4.244l.313.17c.21-.034.313-.17.287-.44l-.313.034v-.17a2.02 2.02 0 0 1 .104-.815c.496-.645.705-1.324.653-2.037.104 0 .156.068.156.204.418-.306.73-1.12.966-2.48.73-1.732 1.775-5.195 3.132-10.357 2.6-9.134 2.505-10.12 2.87-12.258l-.313.034c.026.272-.026.543-.13.78-.21-.102-.392-.17-.496-.17v-.17c-.052-.78.21-1.732.783-2.852h.13l.26 1.324.313-.034c0-.102.078-.61.235-1.596-.026-.204-.13-.306-.365-.34l-.287.238c-.026-.272 0-.985.026-2.173l-.287.068zm-3.758 5.874l.156-.034c-.235.543-.418.85-.6.883l-.026-.577c.13-.034.287-.102.47-.272zm-1.305 4.075c.313-1.664.626-2.615.913-2.852l.026.204c-.157 1.562-.417 2.343-.783 2.41l.052.985c-.287.51-.418.917-.39 1.222l-.157.034-.078-1.358c.157-.034.313-.238.417-.645zm-.496 2.207c.026.238-.104.78-.34 1.596l-.157.034-.026-.577c.183-.68.365-1.02.522-1.053zm-8.586 24.686l.157.373c.235-.034.34-.17.313-.407l-.026-.204-.157.034-.287.204zm4.123 4.448v.17c.235-.034.47-.577.678-1.63l-.313-.136c-.26.917-.365 1.426-.365 1.596zm26.4 1.19v.17l-.26.407.496-.238h.052l-.026-.373h-.104l-.183.204c0-.102.548-.306.13-.408-.078.17.13.204-.104.238zM159.295 46l.705-.068c-.026-.238-.47-.306-.626-.306h-.104l.026.373zm-12.474.34l.21.34c0-.102.026-.17.104-.17l.157.374-.652-.102c-.052-.272.026-.407.183-.44zm-2.14.306c.235-.034.39.17.39.44h-.73v-.17c.078-.034.21-.102.34-.272zm1.67-.102l.026.204-.6.068-.026-.204.6-.068zm-6.054.815c0 .102.052.17.157.17.966-.238.86-.272 1.33-.34.157-.034.235.102.26.34l-2.688.306.26.17-.026-.204-1.018.102-.026-.204.913-.102.835-.238zm2.766-.306v.17c-.078 0 .26.034.104.204-.574-.068-.6-.136-1.018-.102v-.17l.913-.102zm.678-.102v.17l-.496.068v-.17l.496-.068zm-16.702 3.463l.026.577c-.157.034-.287-.102-.34-.373v-.17l.313-.034zm22.34-.51l.026.373.522-.068-.21-.17.026.204.522-.272c3.575-.51 3.993-.306 3.94-.85v-.17c-3.6 1.053-4.07.85-4.828.95zm5.585-.645l.522.136-.026-.373-.522-.136.026.374zm-15.45 1.324c.157.102-.183.204.026.17l1.827-.204.026.204c-.522.068-.86.17-.966.306 0-.136-.052-.204-.157-.204l-.783.102-.026-.204c.21-.034-.104-.034.052-.17zm8.455-.272l.157.373c.6-.17.26-.136.418-.306 0 .136.052.204.104.204l.418-.034-.026-.407-1.096-.034.026.204zm-10.334 1.46h-.104l-.026-.373h.104l.026.373zm-8.168 1.3l.026.204 4.802-.51-.026-.373-3.836.407-.81-.136-.157.407zm5.35-.373h.052l-.026-.373h-.052l.026.373zm-73.07-32.8c-3.393 5.263-5.14 8.15-5.272 8.727-1.383 1.868-2.062 2.988-1.983 3.362-.365.306-.522.61-.47.95-.104.034-.183-.034-.21-.17-.6 1.256-1.46 2.037-2.636 2.41l-1.226.373c-.157.034-.235.204-.235.475l.026.204.47-.136.026.17-1.044.51-1.853.543-.966.068c-.13.17.757-.034.418.102l-1.2.373c-.73.238-1.148.136-1.2-.238l-.13.034c.078.373 0 .61-.21.68l.235-.068-.104-.577-2.192.68.235.136c-.026-.136-.13-.17-.34-.102l-.287.306-.34-.102c-.313.238-.522.373-.574.373l-.34-.102c-.913.68-.235.68-.287.68l.078.373.522-.17.81-.068-.078.44c-2.975 1.02-.81.44-1.618.68l-.157.034.078.373.47-.136.026.204c-.6.17-.94.34-1.044.51l-.026-.204c-.783.238-1.566 1.02-2.35 2.31.13.747-1.566 1.664 6.42-.747.548-.034.86-.034.94-.068-.026-.136.026-.204.13-.238.887-.136.47.068 1.018-.102L47 42.24l-.365.272c-.026-.102.026-.17.104-.204.21.068.417.034.652-.034l.104.577-6.81 14.058-1.514 2.445-.73 3.226.13-.034.73-.407-.235 1.256.078.373.21.34c-.104.034-.13.102-.104.238l.026.204.313-.102c.444-.51.626-.985.574-1.392.496.102.81.136.966.102l.026.204c-.287.102-.444.407-.47.917l.026.204.157-.034c2.48-3.497 8.508-15.484 13.362-23.633-.157-.883 2.375-2.105 7.594-3.667l.157-.034c.183 1.053-.21 3.633-1.2 7.742-.652 2.48-.94 3.837-.913 4.04-.835 3.294-1.227 5.06-1.174 5.33l-1.853 7.878c-1.2 4.04-2.114 8.285-2.74 12.767.104-.034.287 0 .496.068l.26-.306c.026.136.078.17.21.17l-.104-.577.81-.034c.235-.068.444-.475.6-1.19-.026-1.053.13-1.63.496-1.766.496-2.513.81-3.803.913-3.837.47-2.513.81-3.94 1.044-4.312.705-3.26 1.2-4.958 1.54-5.06l.078.407-.496 1.732c-.887 5.127-1.8 9.202-2.714 12.2l.26 1.494.157-.034c2.218-6.18 5.376-18.404 9.525-36.672.13-1.596.705-2.852 1.775-3.735l-.235-.306-.026-.17c.47-.136.81-.373.992-.713-.026-.136-.444-.34-1.253-.61l2.453-13.65c.73-4.075 1.227-7.64 1.488-10.764l-.026-.204c-.496-.407-.992-.985-1.435-1.732v-.815l-.026-.17-.13.034c-1.514 2.988-4.54 8.183-9.003 15.586zm3.47 3.1c.13.713-.078 2.037-.6 3.973-.157 2.445-.835 3.837-2.01 4.21l-.026-.204-1.044.51-.47.136c-.235.068-.444.068-.652-.034l-.104-.543c-.026-.204 1.46-2.92 4.54-8.116l.365.068zm-2.4 8.49l.34-.102.078.373-2.74 1.053c-.104.034-.26.136-.444.34-.026-.136-.235-.136-.652-.034-.078-.373 1.07-.917 3.42-1.63zM46.61 37.182l.365-.102-.078-.408-.365.102.078.408zm4.776-1.63l.078.373-.783.068-.026-.204.73-.238zm-9.134 3.905l.026.204-.496.136-.026-.204.496-.136zm-.913 2.48l.026.17-.6.17-.078-.374.652.034zm1.435-.407l.026.17-1.096.34-.026-.17 1.096-.34zm1.905-.407l.026.204-2.87.85-.078-.373c1.67-.373 1.488-.238 2.923-.68zm14.38-4.346l.235.34c-.34.102-.6.238-.73.407l-.34-.068c-.522.272-.992.475-1.357.577l-.313.102c-.183.068-.313-.034-.392-.272l2.166-.645.73-.44zm1.54-.44l1.54-.475.026.204c-.835.238-1.487.51-1.957.815l-.026-.204c.13-.034.26-.17.418-.34zm-16.18 5.705l.73-.204.078.373c-.313.102-.078.102-.47.34-.757.102-.6-.034-1.8.34l-.026-.204 1.488-.645zm1.983-.442c.21-.068.34.034.365.306l-.444.136c-.183.068-.313-.034-.39-.306l.47-.136zm-8.168 21.46l.026.204c.21-.068.287-.204.235-.475l-.026-.204c-.183.068-.26.204-.235.475zm.626 3.396c.052.238.157.34.365.272s.287-.204.235-.475l-.026-.204-.313.102-.26.306zm16.65 5.84c.21-.068.313.034.365.272l.026.204-.6.17c.052-.272.052-.475.026-.61l.183-.034z"/><path d="M79.674 9.474c-1.357 1.256-2.897 2.547-4.62 3.803l.026.374c.104 0 .26-.102.47-.272.21-.034.313.102.34.34l.287-.204h.13v.17c.026.204-1.07 1.3-3.2 3.26l.157.407h-.13l-.34-.17c0 .136-.13.238-.444.272v.17l.34.543c-.104 0-.287-.034-.496-.17-.705.068-1.383.747-2.062 1.97l.157.374c.6-.713.94-1.087 1.044-1.087l.026.577c-.104 0-.26.102-.47.272l.392.713c.705-1.02 1.487-1.868 2.323-2.58.418.17.652.34.652.51l.313-.034c2.35-2.24 4.645-3.837 6.916-4.822l.026.374c-.418.815-.705 1.222-.86 1.256a2.36 2.36 0 0 0 .183.747c.026.51-.992 3.905-3.08 10.187-4.776 14.567-8.768 25.365-12.004 32.36 0 .136.078.34.21.577.81-.238 1.305-.51 1.514-.747h.13l.026.373.34-.034.287-.204c0 .102.104.17.313.136l.026.407c.026.373-.157.95-.496 1.766-.34.475-.705 1.494-1.07 3.022l.026.204.313-.034c1.305-1.902 2.27-3.735 2.95-5.57 3.784-1.46 6.655-2.852 8.664-4.244 2.035-.238 3.55-.917 4.593-2.037l-.026-.204-.783.306-.157.034-.026-.204c1.488-.272 2.505-.713 3.053-1.3 2.87-2.886 5.037-4.924 6.524-6.112 4.54-4.346 6.68-8.49 6.42-12.496-.026-.407-1.018-2.037-3-4.9-.026-.543.652-1.324 2.035-2.343l3.967-4.482c.887-1.46 1.41-3.837 1.566-7.13l-.052-.747c-.157-2.275-1.435-4.11-3.836-5.535-1.435-1.256-3.993-1.936-7.672-2.07-2.975.272-6.968 1.698-11.9 4.2zm21.243.272l-.157.407-4.384-2.41c2.95.17 4.463.815 4.54 2.003zM83.12 25.637c.313-2.14.652-3.328 1.018-3.6l3.314-9.644c-.026-.577.652-1.053 2.088-1.392l.47-.068.026.577c1.41-.306 2.27-.475 2.636-.51 2.6-.306 3.967.408 4.07 2.037l.313-.034-.052-.917.313-.034c.757.543 1.148 1.19 1.2 1.97.026.543-.183 1.222-.626 2.037-.21.034-.313-.17-.34-.543l-.313.034-.104 1.154c-1.33 2.615-2.27 3.94-2.87 4.007-.522.95-.86 1.426-1.018 1.426-.418.645-1.54 1.766-3.393 3.294-.626.068-2.897 1.222-6.837 3.464-.183-.102-.418-.136-.626-.102l-.026-.373c-.052-.713.21-1.63.757-2.784zm18.216-11.885l.026.407c-.157 0-.444-.61-.913-1.834l-.026-.373c.287-.034.6.577.913 1.8zM72.42 18.37l.026.204c-.104 0-.26.102-.47.238h-.13l-.026-.373.6-.068zm9.578-.306l.026.577c-.157 0-.34.306-.574.815l-.026-.373c.26-.44.39-.78.39-1.02h.183zM80.51 22.07l.052.747-.157.034-.052-.747.157-.034zm-.365 1.392c-.026.645-.157.985-.39 1.02l-.157.034c.183-.44.26-.78.235-1.02l.313-.034zm-.678 2.003l.026.204-.26.61-.313.034-.026-.204c.313-.034.47-.238.444-.645h.13zm-.652 1.8l-.104.985h-.13l-.052-.985h.287zm16.076.713l.652.51c.026.238-.078.407-.287.407-.287-.238-.496-.34-.652-.306v-.577l.287-.034zM82.3 30.153l.026.373-.626.068-.026-.373.626-.068zm10.152 1.392c.444.272.652.51.678.713v.17c-.418.034-.81-.238-1.174-.85l.496-.034zm-13.075 4.177c1.775-.204 4.567-1.3 8.403-3.26l.966-.102c1.93-.204 3.367.272 4.332 1.46l.052.747c-.705 2.648-1.487 4.2-2.35 4.686l-3.94 4.143c-2.95 2.513-4.54 3.77-4.802 3.803-4.697 3.362-7.62 5.093-8.768 5.23l-.157.034c.104-.713 2.192-6.282 6.263-16.74zm4.254-2.207l.026.204-.626.068-.026-.204.626-.068zm14.223-.85l.104 1.562c-.157.373-.287.577-.444.61l-.183-2.65c.34.136.522.306.522.475zm-24.087 13.31c-.21 1.3-.418 1.97-.626 1.97v-.17c-.078-.61.13-1.222.626-1.8zm3.94 7.267c1.148-.272 4.306-2.41 9.473-6.452l.026.373c0 .17-.418.68-1.33 1.494-2.6 1.698-4.175 2.818-4.645 3.396-2.845 1.3-4.254 2.105-4.228 2.41-2.53 1.3-4.175 2.24-4.984 2.852-.183.034-.47-.068-.81-.306-.052-.68.183-1.188.678-1.596.444-.034.86.034 1.253.238.47-.306 1.28-.645 2.453-1.053l-.026-.373-.966.102c.104-.238 1.018-.78 2.714-1.664l.47-.068v.17c-.81.102-1.253.407-1.357.95.026.238.13.373.34.34.653-.407.94-.713.94-.815zm-4.88-4.652v.17c.026.272-.078.44-.287.44l-.026-.204c0-.17.104-.34.313-.407zm7.412 2.65c-.365.034-1.07.44-2.114 1.188l-.157.034-.026-.373c.757-.102 1.435-.475 1.957-1.154.21-.034.313.068.34.306zm-7.672 2.784l.47-.068.026.204c-.104 0-.26.102-.47.238l-.313.034c-.026-.204.078-.34.287-.407zM69.418 56.3l.313.17c-.104 1.188-.392 1.8-.81 1.834-.365-.204-.678-.306-.966-.272l-.026-.577c-.026-.204.078-.34.287-.407.21-.034.313.17.34.543.522-.85.81-1.3.86-1.3zM18.242 7.776c-1.775 1.698-3.8 3.362-6.08 4.992l.026.51c.157 0 .34-.136.6-.306.26-.034.418.102.418.44l.418-.306.21-.034.026.238c.026.238-1.41 1.698-4.254 4.312l.235.475-.21.034-.444-.204c0 .17-.183.272-.6.306l.026.272.47.68a1.34 1.34 0 0 1-.626-.17c-.913.102-1.827.985-2.714 2.615l.235.475c.783-.917 1.226-1.392 1.357-1.392l.052.747c-.13 0-.34.136-.6.306l.496.95c.94-1.324 1.957-2.445 3.106-3.362.574.204.86.407.86.68l.418-.034c3.053-2.954 6.08-5.06 9.082-6.384l.026.51c-.548 1.087-.94 1.63-1.148 1.664.026.373.13.68.287.985.052.68-1.305 5.127-4.07 13.413C9.525 49.406 4.254 63.6 0 72.835c0 .17.104.44.235.747 1.044-.34 1.722-.645 2.01-.985l.235-.034.026.51.39-.034.418-.306c0 .17.157.238.418.204l.026.51c.026.51-.183 1.3-.68 2.343-.444.645-.887 1.97-1.383 3.973l.026.238.39-.034c1.696-2.48 3-4.924 3.89-7.3 4.985-1.9 8.77-3.77 11.404-5.603 2.636-.306 4.67-1.188 6.028-2.682l-.026-.272-.992.374-.235.034-.026-.272c1.93-.373 3.288-.95 4.02-1.698 3.784-3.803 6.63-6.486 8.56-8.08C40.71 48.76 43.53 43.26 43.2 38.03c-.026-.543-1.357-2.683-3.94-6.418-.052-.713.86-1.732 2.688-3.1l5.193-5.942c1.148-1.935 1.853-5.06 2.088-9.372l-.078-1.02c-.21-3.022-1.88-5.467-5.063-7.335-1.88-1.664-5.245-2.547-10.1-2.65-3.993.475-9.264 2.31-15.736 5.57zm27.976.44l-.157.51-5.794-3.158c3.862.204 5.846 1.087 5.95 2.648zM22.783 29.134c.39-2.784.835-4.38 1.33-4.754l4.332-12.665c-.052-.78.86-1.392 2.766-1.8l.626-.068.052.713 3.47-.645c3.445-.373 5.22.51 5.376 2.717l.392-.034-.078-1.3.417-.034c1.018.713 1.566 1.596 1.618 2.65.052.713-.235 1.596-.887 2.65-.26.034-.418-.204-.444-.713l-.418.034-.104 1.528c-1.748 3.396-3 5.127-3.784 5.23-.705 1.256-1.148 1.902-1.33 1.935-.548.85-2.036 2.31-4.49 4.346-.81.102-3.8 1.596-9.003 4.55-.26-.17-.522-.204-.835-.17l-.026-.475c-.052-.985.26-2.207 1.018-3.7zm23.983-15.62l.026.475c-.21.034-.6-.78-1.174-2.41l-.026-.475c.365-.068.757.747 1.174 2.41zm-38.1 6.044l.026.238c-.13 0-.34.136-.6.306l-.21.034-.026-.475.81-.102zm12.605-.407l.052.747c-.183.034-.444.373-.757 1.087l-.026-.51c.365-.577.548-1.02.548-1.324h.183zm-1.93 5.297l.078 1.02-.21.034-.078-1.02.21-.034zm-.496 1.834c-.052.85-.21 1.3-.548 1.324l-.21.034c.235-.577.365-.985.34-1.3l.418-.068zm-.86 2.65l.026.238-.365.815-.392.034-.026-.238c.392-.034.574-.306.548-.815l.21-.034zm-.887 2.377l-.104 1.256-.21.034-.078-1.256.39-.034zm21.165.917l.86.68c.026.34-.104.543-.365.577-.365-.306-.652-.44-.86-.44l-.052-.747.418-.068zM21.687 35.1l.026.475-.81.102-.026-.475.81-.102zm13.362 1.766c.574.34.86.68.887.95l.026.238c-.548.068-1.044-.306-1.514-1.12l.6-.068zm-17.224 5.5c2.35-.272 6.054-1.698 11.09-4.278l1.227-.136c2.557-.272 4.463.34 5.715 1.902l.078 1.02c-.94 3.53-1.983 5.57-3.105 6.214l-5.22 5.4c-3.888 3.328-5.976 4.99-6.29 5.025-6.185 4.448-10.047 6.723-11.535 6.893l-.235.034c.21-.95 2.95-8.285 8.273-22.07zm5.637-2.886l.026.238-.835.102-.026-.238.835-.102zM42.2 38.404l.13 2.003c-.183.543-.365.815-.574.815l-.235-3.53c.444.238.653.475.68.713zm-31.76 17.52c-.26 1.732-.548 2.615-.835 2.65l-.026-.238c-.052-.883.235-1.664.86-2.41zm5.22 9.575c1.514-.373 5.663-3.226 12.474-8.49l.026.475c.026.204-.574.85-1.748 1.97-3.47 2.207-5.506 3.735-6.107 4.516-3.758 1.698-5.61 2.75-5.585 3.158-3.34 1.732-5.533 2.988-6.576 3.77-.235.034-.6-.102-1.07-.373-.052-.883.235-1.596.913-2.173.574-.068 1.148.034 1.67.34.626-.407 1.696-.883 3.236-1.358l-.026-.51-1.227.136c.157-.272 1.33-.985 3.575-2.173l.626-.068.026.238c-1.044.102-1.644.543-1.775 1.256.026.306.157.475.418.44.757-.68 1.148-1.053 1.148-1.154zm-6.42-6.146l.026.238c.026.34-.104.543-.365.577l-.026-.238c-.026-.306.104-.51.365-.577zM19 62.818c-.496.068-1.41.577-2.792 1.596l-.21.034-.026-.51c.992-.102 1.853-.61 2.558-1.528.287-.068.444.102.47.407zM8.873 66.486l.626-.068.026.272c-.157 0-.34.136-.6.306l-.39.034a.49.49 0 0 1 .339-.543zm-4.15 3.022l.444.238c-.157 1.528-.496 2.31-1.096 2.377-.47-.272-.887-.374-1.28-.34l-.052-.747c-.026-.306.104-.475.39-.577.26-.034.418.204.444.713.705-1.12 1.096-1.664 1.148-1.664zM120.49 2.784l-.34-.17-5.56 1.12a1.13 1.13 0 0 0-.757-.17c-.313.034-.783.17-1.487.407l-2.688 1.46.21.44c.13 0 .313-.102.548-.272l.94.102-.13 1.154c-.86.51-1.383 1.256-1.514 2.24-1.305.747-1.957 1.3-1.957 1.63l.026.204.21-.034.365-.238.418.645.052.883c.026.272-2.192 6.35-6.63 18.2L96.14 49.168c-1.305.475-2.088 1.188-2.297 2.105.026.306.418.475 1.174.577l.026.44-.34.747.052.883c.026.475.992.815 2.87 1.087 0-.17.052-.238.183-.272.026.543-.078 1.63-.365 3.26l.21-.034c.783-1.392 1.148-2.343 1.122-2.886l.157-.034c.183-.034.39.272.626.883-.235.136-1.07 2.58-2.48 7.368l.21.44.21-.034c1.748-5.74 2.844-8.93 3.288-9.542l11.874-1.562.34-.272c0 .17.078.238.21.204l.365-.034.34-.272c0 .17.078.238.21.204l4.254-.475c1.122-.136 1.67-.577 1.618-1.324-.026-.204.652-.44 2.01-.68.13 0 .313.034.574.136 0-.136.652-.272 2.01-.44.026-.917.26-1.426.678-1.46l-.026-.44c-.365.034-.81.17-1.305.373-.887-.068-1.46-.136-1.696-.272-.235.17-.417.272-.548.272l-2.975.136-.365.238c0-.136-.078-.204-.21-.17l-.157.034-.39.238c0-.136-.313-.238-.94-.34l-.365.272-.73.068-.026-.238c3.8-.543 5.715-1.222 5.663-2.037.235-.034.365.136.392.44l1.122-.373-.026-.44-9.134.34c0 .17-.052.238-.183.272l-1.122-.136c-.287.034-.522.136-.705.34l-.418-.204c-1.148.136-2.01.306-2.584.543-.783-.068-1.644-.068-2.6.034l-2.062.238-.94-.136c-.052-.78 1.122-4.652 3.55-11.613.705-2.343 1.357-3.803 1.957-4.346.13 0 .313.034.574.17l1.46-.645.757.17c1.253-.136 2.714-.61 4.384-1.392.418-.034.73 0 .94.102l1.122-.34 3.314-.374c1.41-.17 2.95-.577 4.593-1.222l-.026-.44c-.626.068-.94-.068-.966-.373-.052-.61-.496-.85-1.357-.747l-.026-.442.913-.34 2.4-.272-.026-.44c-.104 0-.574 0-1.488-.034l-.026-.475.94-.102c.235-.034.365-.204.34-.475-1.253.034-1.88-.034-1.88-.238-8.7.543-13.022.645-13.048.306-.13 0-.313.102-.548.306l-.235-.475c2.296-6.35 3.654-9.576 4.045-9.6.026.238-.078.645-.287 1.188l.026.204.365-.034c.913-2.852 1.67-4.312 2.323-4.38 2.714-.306-.39-.543 5.454-1.732.235.136.417.204.522.17 2.296-.61 5.48-1.222 9.578-1.868l-.026-.44-2.192.272-.026-.442a1 1 0 0 0 .653-.34l.026.238c.13 0 .287-.102.496-.306.365-.034.652 0 .86.136.757-.272 1.357-.407 1.827-.475l1.357-.17c.34-.272.496-.51.47-.747v-.204c-.34.034-.73 0-1.2-.102-.026-.238.078-.407.313-.475l2.53-.306 1.174-.373c0 .17.078.238.157.238.13 0 .287-.102.496-.306.6.102.966.136 1.044.102.47-.577 1.018-1.053 1.618-1.358-.26-.34-.39-.61-.417-.85l-1.696.204c0-.17-.078-.373-.183-.68 0-.204.365-.407 1.148-.61l.34.17.313-.238c0 .136.078.204.183.17l.313-.238c0 .136.078.204.183.17l.157-.034-.026-.44c-.235.034-.86.034-1.853 0l-.313.272-.026-.238-13.544 1.46c-.13 0-.705 0-1.67-.034 0 .17-.104.272-.34.272l-.34-.204-1.174.373c-.26.034-.73 0-1.383-.068-.183.17-.392.306-.653.34s6.316-.475 6.107-.61l-1.018.373-.157.034c-.418.034-.94.034-1.566-.068-.183.17-.444.306-.835.34a.92.92 0 0 1-.678-.17c-.287.102-1.122.373-2.53.713zm.418 1.358c0 .17.13.238.34.204l.026.44-.34.034a.92.92 0 0 1-.679-.17c-.183.204-.418.306-.652.34h.104l-.94-.136-.026-.204c1.148-.102 1.514-.272 2.166-.51zm.86-.102l.183-.034.026.44-.522.068c0-.238.078-.407.313-.475zm2.01-.272l.026.238c-.39.034-.887.17-1.487.407l-.183.034.157-.475 1.487-.204zm-14.823 2.207l.574-.068-.026-.44-.574.068.026.44zm4.097-.475l.21-.034.39.204c.026.306-.104.475-.34.475l-.574.068-.026-.238c-.026-.238.104-.374.34-.475zm13.127.985v.204l-1.174.136V6.62l1.174-.136zm-3.367.645l.026.238-.678.068-.026-.238.678-.068zm3.236.34l2.35-.51 1.2.068.026.238c-.574.068-1.07.204-1.487.407 0-.17-.235-.306-.705-.373l-1.853.68c-.365-.272-.548-.475-.548-.61l1.018.102zm-2.323.68c.235-.034.34.102.365.408l-.992.136-.026-.44.652-.102zm-2.062-.136l.026.238 6.107-.374-.026-.238-6.107.373zm.365.61v.204l-1.33.17v-.204l1.33-.17zm-8.742 8.998l.026.238.39-.034c0-.17.026-.407.13-.713l-.026-.442c-.21.034-.39.34-.522.95zm-13.44 25.4l.026.204c.026.306-.104.475-.365.51l-.026-.204c-.026-.272.104-.407.365-.51zm-.34.95c.026.44-.21 1.528-.678 3.294l-.574.068c-.026-.306.287-1.392.887-3.294l.365-.068zm6.29 7.097c.026.238-.287.51-.887.78l-1.148-.102-.365.034-.026-.44 2.427-.272zm1.122.136l.026.204-.94.102-.026-.204.94-.102z"/></g></symbol></svg>