<svg width="25" height="26" viewBox="0 0 25 26" fill="none" xmlns="http://www.w3.org/2000/svg">
<path fill-rule="evenodd" clip-rule="evenodd" d="M12.3563 0C5.53252 0 0 5.69027 0 12.7086C0 19.7269 5.53252 25.4172 12.3563 25.4172C19.18 25.4172 24.7126 19.7269 24.7126 12.7086C24.7126 5.69027 19.18 0 12.3563 0ZM12.3563 2.1181C18.034 2.1181 22.6532 6.86899 22.6532 12.7086C22.6532 18.5482 18.034 23.2991 12.3563 23.2991C6.67857 23.2991 2.05938 18.5482 2.05938 12.7086C2.05938 6.86899 6.67857 2.1181 12.3563 2.1181ZM17.653 17.4743H7.05955C6.57354 17.4743 6.17814 17.0676 6.17814 16.5678V9.37894C6.17814 8.87907 6.57354 8.47239 7.05955 8.47239H17.653C18.139 8.47239 18.5344 8.87907 18.5344 9.37894V16.5678C18.5344 17.0676 18.139 17.4743 17.653 17.4743ZM12.3563 14.2516L7.5466 10.8192L7.5363 16.9448H17.1557V10.8192L12.3563 14.2516ZM16.923 9.00192H7.76386L12.3563 12.3009C12.3563 12.3009 15.5751 9.96777 16.923 9.00192Z" fill="white"/>
</svg>
