<svg xmlns="http://www.w3.org/2000/svg" xmlns:xlink="http://www.w3.org/1999/xlink" viewBox="0 0 115 28" fill="#fff" fill-rule="evenodd" stroke="#000" stroke-linecap="round" stroke-linejoin="round"><use xlink:href="#A" x=".5" y=".5"/><symbol id="A" overflow="visible"><g stroke="none" fill-rule="nonzero"><path d="M91.69 24.322L68.802 0l24.322 22.9c.408.384.427 1.025.044 1.434s-1.025.427-1.434.043l-.043-.043m-3.364 1.715L71.067 7.347l18.692 17.26c.412.38.437 1.022.057 1.434a1.01 1.01 0 0 1-1.433.055l-.057-.057m-3.497.05L73.36 13.664l12.423 11.468c.132.122.2.3.217.47s-.057.354-.18.486c-.253.274-.682.3-.955.038l-.038-.038m9.6-8.6L82.453 4.558l12.93 11.975a.67.67 0 0 1 .216.47c.006.18-.058.354-.18.485-.254.274-.682.3-.955.036l-.037-.036m-1.035 3.62L76.072 2.34 94.84 19.674c.412.38.437 1.02.057 1.433a1.01 1.01 0 0 1-1.433.055l-.057-.057M81.252 25.07l-5.456-5.934 5.934 5.456c.066.06.105.145.1.235s-.028.177-.1.243a.34.34 0 0 1-.478.02l-.02-.02M94.01 13.2l-5.456-5.934 5.934 5.456c.066.06.105.145.1.235s-.028.177-.1.243a.34.34 0 0 1-.478.02l-.02-.02" fill="#de4f4f"/><path d="M16.395 26.08h-3.56V15.375L8.22 22.378h-.093L3.56 15.445V26.08H0V9.683h3.888l4.3 6.933 4.3-6.933h3.888zm17.487-6.653h-7.73v3.443h8.9v3.2h-12.47V9.683h12.344v3.2h-8.784v3.326h7.74zm5.575-9.744h13.575v3.326h-5v13.07h-3.607V13h-5zm29.98 9.744h-7.73v3.443h8.9v3.2h-12.46V9.683h12.335v3.2H61.7v3.326h7.73zm30.167-9.744h7.495c2.077 0 3.67.555 4.778 1.663.938.937 1.405 2.186 1.405 3.747v.047c0 1.327-.324 2.408-.972 3.244s-1.496 1.448-2.542 1.84l4.006 5.855h-4.216l-3.513-5.246H103.2v5.246h-3.607zm7.26 7.962c.9 0 1.575-.2 2.05-.632s.714-.984.714-1.687v-.047c0-.78-.25-1.366-.75-1.757s-1.194-.584-2.084-.584H103.2v4.706h3.654z" fill="#333"/></g></symbol></svg>