<svg xmlns="http://www.w3.org/2000/svg" xmlns:xlink="http://www.w3.org/1999/xlink" viewBox="0 0 87.656 85" fill="#fff" fill-rule="evenodd" stroke="#000" stroke-linecap="round" stroke-linejoin="round"><use xlink:href="#A" x="2.578" y="2.5"/><symbol id="A" overflow="visible"><path d="M64.454 59.818c.565-4.61.396-5.288 3.9-4.54l.9.077c2.696.12 6.222-.425 8.293-1.368 4.46-2.027 7.104-5.412 2.707-4.523-10.03 2.027-10.72-1.3-10.72-1.3 10.59-15.397 15.02-34.942 11.197-39.727-10.424-13.05-28.467-6.88-28.77-6.72l-.096.017c-1.982-.403-4.2-.644-6.69-.683C40.627.98 37.183 2.218 34.57 4.16c0 0-32.188-12.993-30.69 16.34.318 6.24 9.13 47.217 19.637 34.84 3.84-4.526 7.552-8.352 7.552-8.352 1.843 1.2 4.05 1.812 6.364 1.592l.18-.15a6.7 6.7 0 0 0 .072 1.762c-2.707 2.963-1.91 3.484-7.323 4.575-5.475 1.106-2.26 3.074-.16 3.59 2.546.624 8.437 1.508 12.418-3.95l-.16.623c1.062.832 1 5.983 1.14 9.662s.402 7.114 1.168 9.14 1.67 7.24 8.782 5.746c5.944-1.248 10.49-3.044 10.904-19.755" fill="#000" stroke-linecap="butt" stroke-width="6"/><path d="M80.246 49.463c-10.03 2.027-10.72-1.3-10.72-1.3 10.59-15.398 15.02-34.944 11.198-39.728C70.3-4.614 52.256 1.558 51.954 1.718l-.097.017c-1.982-.403-4.2-.643-6.693-.683C40.626.98 37.183 2.218 34.57 4.16c0 0-32.19-12.992-30.692 16.34.318 6.24 9.13 47.217 19.637 34.84 3.84-4.526 7.552-8.352 7.552-8.352 1.843 1.2 4.05 1.812 6.363 1.592l.18-.15c-.056.562-.03 1.112.072 1.762-2.707 2.963-1.912 3.484-7.323 4.575-5.476 1.106-2.26 3.074-.16 3.59 2.546.624 8.437 1.508 12.417-3.952l-.16.623c1.06.832 1.806 5.414 1.68 9.568s-.208 7.005.628 9.233 1.67 7.24 8.783 5.746c5.944-1.248 9.025-4.483 9.453-9.878.304-3.836.992-3.27 1.036-6.698l.552-1.623c.637-5.2.1-6.877 3.763-6.097l.9.077c2.696.12 6.224-.425 8.294-1.368 4.46-2.027 7.103-5.412 2.707-4.523z" fill="#336791" stroke="none"/><g fill="none" stroke="#fff" stroke-width="2"><path d="M43.048 52.444c-.276 9.675.07 19.417 1.036 21.785s3.036 6.973 10.15 5.48c5.944-1.25 8.107-3.665 9.045-8.998.7-3.924 2.024-14.82 2.195-17.054M34.52 3.943S2.3-8.955 3.808 20.377c.318 6.24 9.13 47.218 19.638 34.84 3.84-4.526 7.313-8.076 7.313-8.076M51.92 1.6c-1.115.343 17.918-6.817 28.734 6.725 3.82 4.784-.607 24.33-11.198 39.728m-.001-.003s.7 3.33 10.722 1.3c4.395-.9 1.75 2.496-2.708 4.524-3.658 1.663-11.86 2.1-11.994-.2-.345-5.93 4.317-4.13 3.98-5.615-.304-1.338-2.4-2.652-3.768-5.928-1.204-2.86-16.5-24.785 4.245-21.528C70.693 20.43 64.52 1.24 45.094.93S26.3 24.33 26.3 24.33m11.312 25.74c-2.708 2.963-1.9 3.484-7.323 4.575-5.476 1.106-2.26 3.074-.16 3.588 2.546.624 8.437 1.508 12.417-3.953 1.212-1.663-.007-4.315-1.672-4.992-.805-.326-1.88-.736-3.263.78z"/><path d="M37.435 50.018c-.273-1.742.584-3.815 1.503-6.24 1.38-3.64 4.565-7.28 2.018-18.824-1.9-8.603-14.637-1.8-14.645-.624s.576 5.912-.213 11.44c-1.03 7.212 4.684 13.312 11.263 12.688"/><path d="M34.404 24.155c-.057.398.744 1.462 1.8 1.604s1.937-.688 1.994-1.086-.744-.837-1.8-.98-1.938.065-1.993.462zm31.792-.812c.057.398-.744 1.462-1.8 1.604s-1.938-.688-1.995-1.086.746-.837 1.8-.98 1.938.065 1.995.463zm3.736-2.758c.172 3.125-.687 5.254-.795 8.58-.16 4.835 2.353 10.37-1.434 15.9"/></g></symbol></svg>