<svg xmlns="http://www.w3.org/2000/svg" xmlns:xlink="http://www.w3.org/1999/xlink" viewBox="0 0 114 40" fill="#fff" fill-rule="evenodd" stroke="#000" stroke-linecap="round" stroke-linejoin="round"><use xlink:href="#A" x=".5" y=".5"/><symbol id="A" overflow="visible"><g stroke="none" fill-rule="nonzero"><path d="M47.16 15.6h-4v-2.07h10.425v2.07h-3.984v11.776H47.15V15.59zm6.206 1.38H55.4l.17 1.84h.077c.743-1.356 1.84-2.092 2.95-2.092.536 0 .866.06 1.188.215l-.43 2.115a3.35 3.35 0 0 0-1.073-.169c-.827 0-1.823.567-2.452 2.145v6.336h-2.454V16.97zm13.048 3.754c-.023-1.1-.5-2.038-1.885-2.038-1.034 0-2.007.46-2.9 1l-.896-1.632c1.15-.72 2.605-1.356 4.252-1.356 2.605 0 3.87 1.586 3.87 4.482v6.16h-1.992l-.184-1.15h-.077c-.92.78-1.992 1.394-3.218 1.394-1.816 0-3.088-1.226-3.088-3.05 0-2.222 1.862-3.386 6.114-3.854zm-2.275 4.972c.858 0 1.5-.414 2.275-1.134v-2.33c-2.82.368-3.754 1.1-3.754 2.145 0 .92.613 1.333 1.486 1.333zm5.4-8.734h2.475l1.655 5.394.866 3.14h.077l.896-3.14 1.655-5.386h2.352l-3.524 10.4h-2.836L69.54 16.97zm10.88-3.195c0-.827.636-1.394 1.5-1.394s1.502.567 1.502 1.394c0 .797-.636 1.38-1.502 1.38s-1.5-.582-1.5-1.38zm.276 3.195h2.452v10.404h-2.462V16.97zm4.98 7.64c.935.72 1.823 1.165 2.88 1.165 1.12 0 1.647-.536 1.647-1.25 0-.873-1.1-1.256-2.222-1.686-1.364-.498-2.9-1.28-2.9-3.02 0-1.823 1.456-3.1 3.792-3.1 1.433 0 2.605.6 3.448 1.25l-1.135 1.47c-.72-.536-1.456-.9-2.298-.9-1.034 0-1.517.5-1.517 1.15 0 .797 1.034 1.15 2.145 1.532 1.425.536 2.988 1.226 2.988 3.164 0 1.762-1.425 3.218-4.045 3.218-1.417 0-2.9-.613-3.938-1.456l1.15-1.563zm18.77-11.34c1.686 0 3.065.82 3.938 1.762l-1.356 1.5c-.72-.7-1.502-1.15-2.56-1.15-2.268 0-3.892 1.915-3.892 5.018 0 3.14 1.502 5.057 3.808 5.057 1.226 0 2.145-.513 2.927-1.38l1.356 1.502c-1.1 1.287-2.55 2.007-4.306 2.007-3.5 0-6.282-2.544-6.282-7.125 0-4.536 2.835-7.225 6.4-7.225zm5.715.253h2.452v13.852h-2.452V13.52z" fill="#353635"/><path d="M9.265 16.79s-6.034 4.247-6.27 5.866l.453-.093s7.226-4.8 12.955-5.372l.13-.727-7.267.328zm9.473-.607l-4.75 3.37.257.206c.194-.156 8.443-2.676 8.443-2.676l1.74-1.1c-1.167.145-5.686.19-5.686.19zm4.13 4.078c3.375 0 8.435-3.306 8.435-3.306l-1.636-.31c-.08.08-2.637-.1-2.637-.1l-1.213-.337-2.9 3.304-.236.573c.21-.085.187.167.187.167zm11.014 10.542l-1.043.293-4.817-.104L25 28.647l-3.643.91-4.213-.365-2.36 2.578-4.427 1.323-2.2-.685-.11-.096.992 2.43s2.247 2.41 3.502 2.693 3.523-.02 5.223-.284 3.057-.873 3.604-1.862.628-1.276.628-1.276 1.62 2.288 3.017 2.55 5.547-1.154 5.547-1.154 2.53-.688 2.976-1.56 1.62-3.723 1.62-3.723l-1.27.675zM8.62 32.78l-.07-.032-.4-.337.46.37z" fill="#cb3349"/><path d="M37.976 13.592l-.04-.388-.042-.276c-.348-.29-.743-.553-1.154-.79a15.37 15.37 0 0 0-1.389-.71l-1.447-.622-.736-.286-.744-.276 1.554.338.997.286C32.63 4.73 27.013.73 20.882.73S9.134 4.73 6.786 10.867c.33-.103.663-.2.996-.286.515-.132 1.032-.25 1.555-.338l-.745.276-.74.282c-.49.197-.973.4-1.447.622-.475.217-.942.45-1.388.7-.41.237-.806.497-1.155.79a4.97 4.97 0 0 0-.039.276c-.016.13-.03.26-.04.4-.022.262-.033.524-.034.787-.005.526.03 1.052.097 1.57s.167 1.04.31 1.542c.07.25.15.5.24.738a6.33 6.33 0 0 0 .148.352 5.24 5.24 0 0 0 .08.168l.033.064.118.058.234.11.46.213c.008-.007.016-.014.024-.022l-.434-1.65c.092-.025.915-.238 2.333-.507a7.07 7.07 0 0 1-.344-.074 7.17 7.17 0 0 1-.95-.303c-.153-.063-.303-.135-.448-.216s-.285-.176-.395-.3c1.558.51 4.778.278 7.64-.02 2.618-.272 5.242-.445 7.88-.45 2.638.005 5.262.18 7.88.45 2.863.296 6.083.526 7.642.02-.11.124-.25.218-.395.3s-.294.153-.448.216c-.31.125-.627.223-.95.303-.048.012-.096.022-.144.032a37.74 37.74 0 0 1 2.558.549l-.415 1.57.252-.11.233-.11.118-.058.032-.064a3.36 3.36 0 0 0 .081-.168 6.68 6.68 0 0 0 .148-.352c.092-.24.17-.487.24-.74.142-.5.238-1.02.31-1.542a11.47 11.47 0 0 0 .097-1.571c-.001-.263-.013-.525-.035-.787z" fill="#f4edae"/><path d="M22.647 35.422l-.618.073-.4.02-.047.001.372-.842.692.748zm.45.457c.64.635 1.435.998 2.308 1.063-1.468.596-2.85.826-3.917.898s-2.14-.054-3.195-.343l.23-.037c.087-.01 1.98-.257 2.832-1.526h.3l.406-.017a8.47 8.47 0 0 0 .946-.136l.098.097z" fill="#e6ccad"/><path d="M24.912 16.885l-.203.26a16.87 16.87 0 0 1-1.511 1.673l-2.21-.034-3.595.09c1.6-.67 3.548-1.322 5.643-1.715l1.876-.273zm-9.433.722a14.37 14.37 0 0 0-1.855 1.546l-4.182.543c1.785-.82 3.823-1.576 6.037-2.1zm19.714 3.33l-.656 4.592-3.144 2.202-8.2-.932-1.234-4.065a.27.27 0 0 0-.215-.188c-.304-.05-.573-.074-.797-.074a5.19 5.19 0 0 0-.798.074.27.27 0 0 0-.214.188L18.733 26.7l-8.154 1.815-3.233-2.264L6.71 21.1l.422-.233.674-.136.6 4.862a.27.27 0 0 0 .114.188l2.223 1.558c.046.03.1.048.154.048.02 0 .04-.002.06-.006l6.704-1.492c.023-.005.046-.013.067-.024a.27.27 0 0 0 .132-.16l1.207-3.975c.324-.083 1.153-.277 1.882-.277s1.557.194 1.88.277l1.207 3.975a.27.27 0 0 0 .228.189l6.704.762c.065.007.13-.01.185-.047l2.224-1.556a.28.28 0 0 0 .111-.183l.594-4.154 1.112.227zm.828-2.88l-.577 2.19c-1.18-.26-3.773-.77-7.302-1.114 1.153-.492 2.327-1.108 3.4-1.88l4.48.804z" fill="#656c67"/><g fill="#e5caa3"><use xlink:href="#C"/><use xlink:href="#D"/></g><g fill="#c7b39a"><use xlink:href="#C"/><use xlink:href="#D"/></g><path d="M36.356 22.4c.1.08.175.292.088 1.272-.11 1.2-.613 3.306-.925 3.646-.345.067-1.068-.012-1.508-.115l.16-.756.77-.54a.27.27 0 0 0 .112-.183l.54-3.775.764.45zM7.938 27.326l.12.407c-.415.122-1.26.238-1.642.172-.317-.32-.908-2.514-1.036-3.68-.105-.944-.032-1.15.064-1.228.112-.094.53-.33.89-.525l.49 3.966c.01.076.05.143.114.188l1 .7zm15.59.055l-.03.253s-.888.824-2.318 1.008-2.554-.695-2.554-.695c.047.153.114.498.438.792a10.31 10.31 0 0 0-1.224-.076l-.466.012c-.88.046-2.118 1.377-2.99 2.718L11.08 32.41c-1.443-1.997-2.152-4.042-2.224-4.253l.001-.001-.085-.246.37.26v.001l.916.64.306.213c.046.032.1.05.154.05.02 0 .04-.002.06-.006L19 27.2a.27.27 0 0 0 .199-.184l1.2-3.956c.207-.028.39-.043.546-.043s.34.015.546.043l1.236 4.072c.03.103.12.178.227.19l.576.066zm9.62-.22l.272-.19-.145.562c-.378 1.212-.824 2.283-1.32 3.23l-.35.012c-.382 0-.773-.032-1.205-.072l-2.317-.25L25.73 28.6l-.098-.08c-.162-.137-.35-.293-.72-.293-.34 0-.835.124-2.036.486.623-.465.627-1.067.627-1.067l.03-.253 7.902.898c.065.007.13-.01.185-.047l1.527-1.07z" fill="#e6ccad"/><path d="M27.33 10.537c.024.703.006 1.977-.32 3.17a.26.26 0 0 0 0 .136l-1.25-.116c.468-.98.57-2.024.592-2.392.36-.255.717-.562.98-.8zm-11.922.8c.022.368.124 1.41.59 2.39l-1.25.116c.01-.043.013-.09 0-.135-.327-1.19-.344-2.465-.32-3.17.262.24.62.543.98.8z" fill="#ebd599"/><path d="M29.444 24.37c-.562-.27-1.175.073-2.294.094-.832.03-1.53.038-1.577-1.27s.487-2.4 1.32-2.42 1.592 1.008 1.694 2.314c.028.36-.012.622-.1.814.775-.092.95.433.958.465zm-2.616-1.915a.43.43 0 0 0 .418-.433c-.004-.235-.198-.422-.433-.418s-.422.198-.418.433.198.422.433.418z" fill="#2d3136"/><path d="M26.395 22.036c-.004-.236.182-.43.418-.433s.43.182.433.418-.182.43-.418.433-.43-.182-.433-.418z" fill="#edf6fa"/><path d="M16.19 23.455c.012 1.308-.68 1.23-1.514 1.237l-.244.004-.27.001c-.808-.001-1.325-.038-1.784.21.01-.028.213-.477.938-.66-.08-.177-.13-.423-.144-.763-.05-1.307.756-2.38 1.6-2.386s1.416 1.047 1.426 2.357zm-1.286-.684c.233-.006.42-.202.414-.436s-.202-.42-.436-.414-.42.202-.415.436.202.42.438.415z" fill="#2d3136"/><path d="M14.466 22.358c-.006-.236.18-.43.415-.436s.43.18.437.415-.18.43-.415.436-.43-.18-.437-.415z" fill="#edf6fa"/><g fill="#ebd599"><path d="M9.832 14.575s.13-1.686.394-2.33c.136-.333.97-.543 1.605-.698s1.65-.454 1.847.44.514 1.544.726 1.832l-.272-3.68-4.377 1.06-.288 3.255.136.257.227-.136m22.14 0s-.13-1.686-.394-2.33c-.136-.333-.97-.543-1.605-.698s-1.648-.454-1.847.44-.515 1.544-.727 1.832l.273-3.68 4.375 1.06.288 3.255-.136.257-.227-.136" opacity=".8"/><path d="M25.785 3.564s-.116 8.824-2.177 8.824H18.25c-2.06 0-2.227-8.818-2.227-8.818L15 6.56l.017 4.108.72.57.327 1.764.457 1.03 8.82.016.408-.737.343-1.24.05-.784.974-2.78-1.34-4.945zm6.5 8.225s.424 3.043 1.546 3.592 0 0 0 0l-1.57-.474.025-3.118zm-22.8 0s-.424 3.043-1.547 3.592 0 0 0 0l1.572-.474-.025-3.118z" opacity=".75"/></g><path d="M32.576 14.893c.534.175 1.072.36 1.558.645-.26-.103-.53-.177-.8-.244l-.814-.18-1.648-.257-1.657-.18-1.662-.126-6.67-.173-6.67.174-1.662.126-1.657.18-1.648.257-.816.178a6.14 6.14 0 0 0-.8.244c.485-.284 1.024-.47 1.56-.646l.136-.04-.008-.034c-.01-.06-.207-1.524.136-3.616a.26.26 0 0 1 .187-.209l.566-.16c.123-4.387 1.93-6.45 1.986-6.515-1.615 2.598-1.6 5.68-1.572 6.397l3.515-1a.33.33 0 0 1 .052-.008.25.25 0 0 1 .072.004c.025.006.038.01.054.018l.05.03.016.013.255.243c-.035-1.158.02-4.48 1.602-7.233-.033.097-1.29 3.768-.856 7.882l.432.32c.07.048.112.127.114.21.001.014.03 1.325.6 2.44.008.017.014.034.02.052l4.327-.138 4.326.14c.005-.02.012-.038.02-.055.58-1.116.61-2.427.61-2.44.002-.085.045-.163.116-.213l.43-.32c.433-4.114-.822-7.785-.853-7.882 1.58 2.754 1.637 6.077 1.602 7.233l.244-.233.017-.015.044-.03a.3.3 0 0 1 .061-.024c.03-.006.048-.008.067-.007l.058.007 3.524 1c.028-.718.043-3.8-1.572-6.397.058.064 1.862 2.127 1.985 6.515l.567.16c.097.028.17.11.187.21.345 2.092.146 3.554.137 3.616a.3.3 0 0 1-.008.035l.137.042zm-.64-.188c.027-.234.155-1.513-.116-3.258l-3.975-1.13c.036.674.05 2.135-.33 3.53-.005.017-.012.034-.02.05l.118.012 3.335.55.994.25zm-4.926-1c.327-1.193.345-2.467.32-3.17-.262.24-.62.543-.98.8-.022.368-.124 1.41-.592 2.39l1.25.116c-.012-.045-.012-.092 0-.136zm-11.01.02c-.467-.98-.57-2.02-.59-2.39a10.87 10.87 0 0 1-.979-.8c-.023.704-.006 1.98.32 3.17.013.046.01.092 0 .135l1.25-.116zm-1.732.168c-.008-.016-.014-.032-.02-.048-.383-1.394-.368-2.855-.332-3.53l-3.98 1.13c-.268 1.742-.143 3.022-.116 3.257l.995-.25 1.66-.318 1.673-.23.118-.014zM25.074 3.68V6.98h-2.34v-.965h-.527v4.456h.795v2.492H18.9v-2.492h.793V6.016h-.524v.965h-2.34V3.68h8.235zm-.703 2.6v-1.9H17.54v1.9h.934v-.965h1.932v5.86H19.6v1.087h2.69v-1.087h-.795v-5.86h1.932v.965h.934z" fill="#2d3136"/><path d="M19.6 12.263v-1.087h.795v-5.86h-1.932v.965h-.934v-1.9h6.83v1.9h-.934v-.965h-1.932v5.86h.795v1.087z" fill="#cb3349"/><path d="M5.952 18.058l1.367-.285-1.207.892-.16-.606z" fill="#656c67"/><g fill="#c7b39a"><path d="M18.442 27.106s.095.614-.764.877l-6.92 1.796c-.62-.088-2.195-1.14-2.195-1.14l-.382-1.358 2.33 1.453 7.93-1.628zm4.874-.12s-.07.617.8.843l6.99 1.494c.616-.115 2.143-1.233 2.143-1.233l.322-1.374-2.142 1.277-8.116-1.007z"/><path d="M5.5 25.977s.754 1.508 1.97.986l.87.32-.087.64-1.827.232-.493-.3L5.5 25.98zm30.86-.414s-1.232 1.574-2.45 1.052l-.392.253.087.64 1.827.232.493-.3.435-1.884zM17.314 37.408s4.466 2.25 9.523-.812l-1.624-.1s-3.543 1.402-6.35.627l-1.55.295z"/></g><path d="M21.84 33.258l.31.37c.007.01.694.826 1.533 1.658a2.76 2.76 0 0 0 2.006.833 3.51 3.51 0 0 0 .821-.101l.83-.2 3.173-.785c.763-.174 1.81-.42 2.363-1.532l1.396-2.707-1.01.49c-.415.218-.958.323-1.66.323-.417 0-.827-.035-1.28-.078l-2.574-.28-.093-.074-2.445-1.935-.12-.1c-.116-.098-.116-.098-.183-.098-.35 0-1.36.314-3.58 1.002l-.136.043-.136-.05c-.015-.005-1.47-.543-3.215-.543l-.424.01c-.175.01-1.155.475-2.4 2.46l-.082.127-.143.046-4.468 1.358-.148.042-.14-.065c-.015-.006-.91-.422-1.765-.813l1.582 2.215c.91 1.177 2.065 2.264 4.273 2.264.292-.001.583-.018.873-.05l3.135-.41.295-.046c.017-.002 1.856-.24 2.372-1.397l.644-1.483.188-.5s.023-.13.06-.17l.005.004c.06.043.147.175.147.175zM7.854 10.802l-1.447.62-1.387.7c-.41.237-.806.497-1.155.8l-.04.276-.04.388-.035.787c-.005.526.03 1.052.097 1.573a11.41 11.41 0 0 0 .309 1.542l.24.738.148.353.08.168.033.063.117.058.234.11.46.212c.01-.007.017-.015.024-.022L5.06 17.52c.09-.025.915-.238 2.333-.508l-.344-.074c-.322-.08-.64-.178-.95-.303-.153-.064-.303-.137-.448-.217s-.285-.175-.395-.3c1.558.512 4.777.282 7.64-.013l7.88-.45c2.637.006 5.263.18 7.88.45 2.864.295 6.084.526 7.642.017-.11.125-.25.218-.394.3s-.295.152-.446.217c-.31.124-.628.223-.95.303l-.143.032 2.557.55-.415 1.572.25-.11.234-.11.117-.058.032-.063.08-.168.15-.352.24-.738a11.28 11.28 0 0 0 .309-1.542 11.47 11.47 0 0 0 .097-1.573l-.034-.787-.04-.4-.04-.276a7.95 7.95 0 0 0-1.155-.79c-.446-.26-.912-.492-1.388-.7l-1.447-.62-.737-.286-.744-.276 1.554.338.997.287C32.63 4.73 27.012.73 20.88.73S9.134 4.73 6.786 10.868c.33-.104.662-.2.996-.287a18.35 18.35 0 0 1 1.555-.337l-.745.276-.737.286zm30.917 3.552a10.47 10.47 0 0 1-.05 1.694c-.06.56-.166 1.117-.314 1.67a8.7 8.7 0 0 1-.272.814 6.29 6.29 0 0 1-.175.402c-.032.067-.066.134-.1.2l-.055.1c-.02.036-.036.063-.067.11l-.057.09-.09.046c-.086.044-.172.086-.26.127l-.252.113c-.168.072-.338.14-.508.207l-.322.13-.28 1.064-.25-.06-.015.11c.31.162.916.49 1.123.66.416.344.446.9.354 1.908-.047.523-.22 1.54-.462 2.476-.416 1.61-.637 1.798-.922 1.87-.19.048-.387.073-.583.074-.44 0-1.038.012-1.44-.085-.103.366-.398 1.32-.983 2.514.03-.014.058-.026.084-.04.72-.38 2.106-.982 2.165-1.008l1.094-.476-.562 1.054a200 200 0 0 0-1.951 3.759c-.73 1.462-2.1 1.78-2.922 1.968l-.336.083c-.59.166-1.78.45-2.83.702-.012.003-.025.006-.038.008a12.4 12.4 0 0 1-2.124 1.049c-2.825 1.07-5.803 1-8.502.018l-1.783.213a8.75 8.75 0 0 1-.967.056c-2.572 0-3.935-1.306-4.93-2.585-1.065-1.37-2.368-3.402-2.424-3.488l-.75-1.176 1.277.574 2.95 1.357.125-.036a15.63 15.63 0 0 1-2.074-4.195c-.426.128-1.08.228-1.59.228a2.19 2.19 0 0 1-.482-.044c-.285-.065-.6-.34-1.053-1.9-.257-.905-.45-1.893-.505-2.402-.11-.993-.1-1.525.322-1.87.25-.207 1.086-.65 1.262-.737l-.037-.306c-2.666 1.567-4.266 2.952-4.297 2.98L0 26.044l1.36-2.142c1.075-1.698 2.317-3.07 3.46-4.128l-.136-.057-.252-.113c-.086-.04-.165-.078-.26-.127l-.09-.046-.057-.09c-.032-.048-.046-.075-.067-.11l-.058-.1-.1-.2c-.062-.132-.12-.266-.173-.402-.104-.267-.195-.538-.272-.814-.15-.55-.255-1.105-.314-1.67s-.078-1.13-.05-1.694c.015-.282.042-.564.08-.844a7.62 7.62 0 0 1 .069-.421c.028-.145.062-.288.1-.43l.03-.11.078-.06c.445-.35.925-.613 1.413-.848a15.31 15.31 0 0 1 1.224-.507c1.152-3.198 3.134-6.034 5.74-8.01C14.416 1.08 17.582 0 20.88 0s6.464 1.08 9.157 3.123c2.604 1.977 4.586 4.813 5.738 8 .414.153.822.318 1.225.508.488.234.97.498 1.412.848l.078.06.03.11a5.25 5.25 0 0 1 .1.431c.028.14.05.28.07.42a9.29 9.29 0 0 1 .081.844zm-2.326 9.314c.09-.98.01-1.19-.088-1.27s-.436-.274-.763-.452l-.54 3.774a.27.27 0 0 1-.112.183l-.77.54c-.06.31-.083.455-.158.757.44.102 1.163.182 1.508.115.313-.34.817-2.443.925-3.646zm-1-3.422l.577-2.19a56.34 56.34 0 0 0-4.48-.804c-1.072.77-2.246 1.387-3.4 1.88 3.53.343 6.122.854 7.302 1.114zm-.907 5.282l.656-4.59-1.11-.227-.593 4.154c-.01.073-.05.14-.11.183l-2.225 1.556a.27.27 0 0 1-.184.047l-6.704-.762a.27.27 0 0 1-.228-.189l-1.208-3.975c-.324-.083-1.154-.277-1.88-.277s-1.56.194-1.883.277l-1.208 3.975a.27.27 0 0 1-.132.159c-.02.01-.043.02-.066.024l-6.703 1.494c-.02.004-.04.006-.06.006-.055 0-.11-.017-.154-.05L8.52 25.777c-.062-.044-.104-.112-.114-.188l-.6-4.862-.675.136-.422.235.636 5.152 3.232 2.264L18.73 26.7l1.204-3.966a.27.27 0 0 1 .215-.189 5.13 5.13 0 0 1 .798-.074c.224 0 .492.025.796.074.102.016.186.09.215.19l1.235 4.064 8.2.932 3.142-2.202zm-1.565-.853l.58-4.062a68.48 68.48 0 0 0-6.961-.883c-2.646.913-4.863 1.184-4.997 1.194l-.155.01c.844.073 1.64.3 1.68.31.088.026.156.094.183.18l1.2 3.95 6.426.73 2.044-1.43zm.447 2.297l-.272.19-1.527 1.07c-.054.037-.12.054-.185.047l-8.477-.964a.27.27 0 0 1-.227-.19l-1.237-4.072a4.14 4.14 0 0 0-.543-.043c-.155 0-.34.014-.546.043l-1.2 3.954c-.028.093-.104.163-.2.183l-8.425 1.88c-.02.004-.04.006-.06.006-.055 0-.1-.017-.155-.05l-.306-.213-.916-.64v-.002l-.37-.26c.026.083.058.165.085.246v.001a17.54 17.54 0 0 0 2.224 4.253l3.308-1.015c.87-1.34 2.11-2.672 3-2.718a9.91 9.91 0 0 1 .466-.012c.41.001.818.027 1.224.076-.324-.294-.4-.64-.437-.792 0 0 1.123.88 2.554.695s2.32-1.01 2.32-1.01-.004.602-.627 1.067c1.2-.363 1.695-.485 2.036-.485.374 0 .56.157.72.295l.098.08 2.354 1.864 2.316.25c.432.04.823.072 1.206.072a5.27 5.27 0 0 0 .349-.012c.496-.946.942-2.017 1.32-3.23.05-.187.1-.374.144-.562zm-2.915-10.005l-1.91-.128-2.65-.13c-.1.146-.2.3-.305.43-.48.65-1.435 1.842-2.657 2.857 1.73-.3 4.732-1.078 7.33-2.9l.194-.14zm-5.794.18l.202-.26c-.63.064-1.254.155-1.875.273-2.097.392-4.034 1.047-5.643 1.714a74.32 74.32 0 0 1 3.595-.088 75.03 75.03 0 0 1 2.211.034c.617-.593 1.136-1.2 1.51-1.673zm.696 19.797c-.873-.064-1.667-.428-2.308-1.062l-.097-.1c-.313.063-.63.11-.947.136-.135.005-.264.017-.407.017h-.3c-.852 1.268-2.746 1.515-2.832 1.526a3.52 3.52 0 0 0-.233.036c1.055.29 2.132.415 3.195.343s2.45-.302 3.916-.897zm-3.374-1.447a8.86 8.86 0 0 0 .617-.073c-.235-.245-.466-.494-.692-.748l-.372.842h.047c.128 0 .267-.014.4-.02zm-.65-15.248c.354-.214.695-.46 1.018-.72l-1.41-.014c-1.824 0-3.647.07-5.466.206-1.668.814-2.69 1.488-2.715 1.505l-1.603 1.07 1.1-1.58c.182-.262.374-.51.573-.748a65.05 65.05 0 0 0-4.538.664l.59 4.777 2.027 1.42 6.435-1.43 1.205-3.968a.27.27 0 0 1 .122-.154c.02-.012.04-.02.06-.027.037-.01.68-.194 1.423-.284l1.182-.714zm.74-3.643l-1.345-.012-1.978.02-1.216.576c-.2.1-1.796.904-3.298 2.34 1.346-.708 3.325-1.633 5.653-2.35a27.95 27.95 0 0 1 2.182-.576zm-8.497 2.55c.63-.625 1.28-1.14 1.855-1.545-2.214.514-4.25 1.27-6.036 2.1 1.388-.224 2.782-.405 4.18-.545zm.42-1.93a29.91 29.91 0 0 1 2.291-.542l-3.373.157-1.952.13-.97.086a8.32 8.32 0 0 0-.275.031c-.847.507-4.097 2.547-6.328 5.217 2.168-1.507 5.945-3.77 10.608-5.076zM8.06 27.73c-.042-.135-.082-.27-.12-.408l-1-.7a.27.27 0 0 1-.114-.188l-.488-3.966c-.36.194-.78.43-.89.525-.096.078-.17.283-.065 1.228.13 1.164.72 3.36 1.037 3.68.382.067 1.227-.05 1.642-.172zm-.74-9.96l-1.367.285.16.606c.39-.312.793-.61 1.207-.892z" fill="#2d3136"/></g></symbol><defs ><path id="C" d="M12.38 24.907c.457-.247.974-.2 1.784-.21l.27-.001.244-.004c.833-.008 1.526.07 1.514-1.237s-.594-2.366-1.426-2.357-1.64 1.08-1.6 2.386c.014.34.064.586.144.763-.726.182-.926.63-.938.66zm10.017-5.38c-.323.263-.663.503-1.018.72l-1.182.714c-.742.1-1.385.274-1.42.285a.23.23 0 0 0-.062.027c-.057.033-.1.088-.122.154L17.4 25.393l-6.435 1.43-2.027-1.42-.59-4.777 4.538-.663-.573.748-1.1 1.58 1.603-1.067c.024-.017 1.045-.688 2.714-1.505l5.466-.206 1.412.014z"/><path id="D" d="M29.444 24.37c-.008-.03-.183-.557-.958-.465.09-.195.13-.457.1-.815-.102-1.305-.862-2.343-1.694-2.313s-1.366 1.11-1.32 2.42.745 1.298 1.577 1.27c1.12-.02 1.734-.365 2.294-.094zm4.107-3.76l-.58 4.06-2.044 1.43-6.427-.73-1.2-3.95c-.027-.087-.096-.155-.183-.18-.04-.012-.835-.238-1.68-.312l.154-.01c.133-.01 2.35-.28 4.997-1.194l6.96.884z"/></defs></svg>