<svg xmlns="http://www.w3.org/2000/svg" xmlns:xlink="http://www.w3.org/1999/xlink" viewBox="0 0 85 85" fill="#fff" fill-rule="evenodd" stroke="#000" stroke-linecap="round" stroke-linejoin="round"><use xlink:href="#A" x="2.5" y="2.5"/><symbol id="A" overflow="visible"><path d="M0 40v40h80V0H0v40zm64.47-3.187c2.032.508 3.58 1.4 5.003 2.883.737.787 1.828 2.222 1.918 2.565.025.102-3.454 2.438-5.562 3.746-.076.05-.38-.28-.724-.787-1.028-1.498-2.108-2.146-3.76-2.26-2.425-.165-3.987 1.105-3.975 3.225 0 .622.09 1 .343 1.5.533 1.105 1.524 1.765 4.635 3.11 5.727 2.464 8.178 4.09 9.702 6.4 1.702 2.578 2.083 6.692.927 9.752-1.27 3.327-4.42 5.587-8.85 6.337-1.37.24-4.622.203-6.095-.064-3.213-.57-6.26-2.16-8.14-4.24-.736-.813-2.17-2.933-2.083-3.086.038-.05.368-.254.737-.47l2.97-1.714 2.298-1.333.483.71c.673 1.03 2.146 2.438 3.035 2.908 2.552 1.346 6.057 1.155 7.784-.394.736-.673 1.04-1.37 1.04-2.4 0-.927-.114-1.333-.597-2.032-.622-.89-1.892-1.638-5.498-3.2-4.127-1.778-5.905-2.883-7.53-4.635-.94-1.016-1.828-2.64-2.197-4-.305-1.13-.38-3.962-.14-5.105.85-3.987 3.86-6.768 8.203-7.594 1.41-.267 4.686-.165 6.07.178zm-18.78 3.34l.025 3.276H35.3v29.587h-7.365V43.43H17.524v-3.213c0-1.778.038-3.263.09-3.302.038-.05 6.375-.076 14.057-.064l13.98.038.038 3.263z" fill="#007acc" stroke="none"/></symbol></svg>