<svg xmlns="http://www.w3.org/2000/svg" xmlns:xlink="http://www.w3.org/1999/xlink" viewBox="0 0 109 34" fill="#fff" fill-rule="evenodd" stroke="#000" stroke-linecap="round" stroke-linejoin="round"><use xlink:href="#A" x=".5" y=".5"/><symbol id="A" overflow="visible"><g stroke="none" fill-rule="nonzero"><path d="M43.935 21.163h2.78l2.834-9.444h-2.7l-1.678 6.7-1.8-6.7h-2.346l-1.806 6.7-1.662-6.7h-2.7l2.818 9.444h2.78l1.753-6.05zm5.76-4.695c0 2.834 1.93 4.93 4.968 4.93 2.35 0 3.613-1.4 3.974-2.076l-1.645-1.247c-.27.398-1 1.156-2.295 1.156-1.392 0-2.403-.903-2.457-2.167h6.65c.017-.182.017-.36.017-.543 0-3.087-1.662-5.04-4.587-5.04-2.693 0-4.624 2.13-4.624 4.985zm2.62-1.03c.108-1.082.866-1.914 2.042-1.914 1.14 0 1.968.758 2.022 1.914zm7.533 5.726h2.35V20.2c.253.307 1.193 1.2 2.8 1.2 2.7 0 4.624-2.04 4.624-4.948 0-2.925-1.77-4.964-4.48-4.964-1.624 0-2.565.903-2.8 1.227V8.098h-2.5v13.065zm2.42-4.695c0-1.77 1.048-2.78 2.42-2.78 1.446 0 2.42 1.14 2.42 2.78 0 1.678-1 2.727-2.42 2.727-1.517 0-2.42-1.23-2.42-2.727zm8.325 8.072h2.5v-4.354c.236.307 1.173 1.2 2.8 1.2 2.7 0 4.48-2.04 4.48-4.964 0-2.888-1.914-4.948-4.624-4.948-1.608 0-2.548.903-2.8 1.227v-.994H70.6v12.825zm2.42-8.126c0-1.5.903-2.727 2.42-2.727 1.4 0 2.42 1.048 2.42 2.727 0 1.645-.974 2.78-2.42 2.78-1.372 0-2.42-1-2.42-2.78zm7.802 1.823c0 1.985 1.624 3.16 3.54 3.16 1.085 0 1.806-.324 2.295-.85l.162.613h2.204v-5.98c0-2.113-.903-3.7-3.937-3.7a7.05 7.05 0 0 0-3.721 1.119l.94 1.7c.704-.36 1.57-.667 2.5-.667 1.102 0 1.715.56 1.715 1.392v.613c-.344-.236-1.085-.522-2.042-.522-2.204-.003-3.667 1.26-3.667 3.12zm2.5-.074c0-.775.667-1.318 1.624-1.318s1.645.5 1.645 1.318c0 .795-.688 1.3-1.624 1.3s-1.645-.522-1.645-1.3zm11.76 1.03c-1.57 0-2.7-1.14-2.7-2.743 0-1.517.994-2.764 2.602-2.764 1.065 0 1.8.522 2.204.903l.704-2.096a4.83 4.83 0 0 0-2.98-1c-2.872 0-5.022 2.113-5.022 4.985s2.096 4.93 5.04 4.93a4.82 4.82 0 0 0 2.942-1l-.667-2.04c-.418.34-1.176.846-2.133.846zm3.738 1.968h2.5v-4.877l3.16 4.877h2.925l-3.576-5.167 3.323-4.28h-2.8l-3.033 3.974V8.106h-2.5z" fill="#1a1c1c"/><path d="M28.53 25.16L15.3 32.646v-5.828l8.244-4.536zm.906-.82V8.69l-4.84 2.797v10.06zm-28.53.82l13.23 7.485v-5.828L5.9 22.28zM0 24.34V8.69l4.84 2.797v10.06zM.568 7.676L14.138 0v5.623l-8.764 4.822zm28.3 0L15.298 0v5.623l8.764 4.818z" fill="#8ed6fb"/><path d="M14.14 25.746L6.005 21.27v-8.86l8.135 4.696zm1.162 0l8.135-4.47v-8.863l-8.135 4.696zm-.58-8.976zm-8.166-5.382L14.722 6.9l8.166 4.488-8.166 4.714z" fill="#1c78c0"/></g></symbol></svg>